<svg width="33" height="33" viewBox="0 0 33 33" fill="none" xmlns="http://www.w3.org/2000/svg">
<path d="M28.1983 24.9175L19.7807 16.5L28.1983 8.08237C29.107 7.17358 29.107 5.7105 28.1983 4.80171C27.2895 3.89292 25.8264 3.89292 24.9176 4.80171L16.5 13.2193L8.08243 4.80171C7.17365 3.89292 5.71056 3.89292 4.80177 4.80171C3.89298 5.7105 3.89298 7.17358 4.80177 8.08237L13.2193 16.5L4.80177 24.9175C3.89298 25.8263 3.89298 27.2894 4.80177 28.1982C5.71056 29.107 7.17365 29.107 8.08243 28.1982L16.5 19.7806L24.9176 28.1982C25.8264 29.107 27.2895 29.107 28.1983 28.1982C29.1006 27.2894 29.1006 25.8199 28.1983 24.9175Z" fill="#FAFAFA"/>
</svg>
